# xmcd CD database file
#
# Track frame offsets:
#	150
#	2352
#	16270
#	25884
#	29784
#	45036
#	48001
#	63092
#	64570
#	70404
#	84380
#	92289
#	95174
#	106880
#	122333
#	135117
#	137208
#	149184
#	152338
#	166339
#	168685
#	185421
#	191350
#	201447
#	211642
#	224443
#	240197
#	257936
#	265501
#	275876
#	291440
#	302895
#	315644
#
# Disc length: 4332 seconds
#
# Revision: 0
# Processed by: cddbd v1.4PL0 Copyright (c) Steve Scherf et al.
# Submitted via: Feurio! 1.64 - http://www.feurio.com
#
DISCID=c810ea21
DTITLE=Mix2 - Aftershock Hip Hop Mix 2
DYEAR=1900
DGENRE=
TTITLE0=Intro -  
TTITLE1=Fabolous /Nate Doog - You can `t deny it
TTITLE2=Missy remix  - Get your freak on 
TTITLE3=Intro - Hands up dubb
TTITLE4=Missy/Jay -Z - One minute man 
TTITLE5=Intro  - Ain`t nobody dubb
TTITLE6=Fabolous - Superwoman part 2
TTITLE7=Inro - Bounce wit me dubb
TTITLE8=P. Diddy  - Let`get it
TTITLE9=Jay -Z - Change da game
TTITLE10=Redman - Let´get dirty
TTITLE11=Intro - Run this dubb
TTITLE12=Busta Rhymes - What is it
TTITLE13=Ray J /Lill Kim  - Wait a minute 
TTITLE14=Ludacris/Nate Doog - Area codes
TTITLE15=Intro - Wesside Dubb
TTITLE16=Dogg Pound - Gangsta rap
TTITLE17=Intro - G´z dubb
TTITLE18=Badazz/Snoop - Wrong idea
TTITLE19=Intro - Bla dubb
TTITLE20=Eastside Boys/2Short - Bla bia
TTITLE21=Juvenile - Set it off
TTITLE22=Foxy Brown/DMX - Oh no
TTITLE23=Jay-Z - Izzo
TTITLE24=P.Diddy and Family - Bad boy for life
TTITLE25=Ja Rule/J -Lopez - I´m real
TTITLE26=R.Kelly/Jay-Z - Fiesta
TTITLE27=Mary j Blige - Family affair
TTITLE28=Tyrese/Snoop - Baby boy
TTITLE29=Jaged/Nelly - Where da party at
TTITLE30=Eric Sermon /Marvin G. - Music
TTITLE31=Snoop/Lill Kim  - Do you wanna rol
TTITLE32=Jaheem - Just in case
EXTD=
EXTT0=
EXTT1=
EXTT2=
EXTT3=
EXTT4=
EXTT5=
EXTT6=
EXTT7=
EXTT8=
EXTT9=
EXTT10=
EXTT11=
EXTT12=
EXTT13=
EXTT14=
EXTT15=
EXTT16=
EXTT17=
EXTT18=
EXTT19=
EXTT20=
EXTT21=
EXTT22=
EXTT23=
EXTT24=
EXTT25=
EXTT26=
EXTT27=
EXTT28=
EXTT29=
EXTT30=
EXTT31=
EXTT32=
PLAYORDER=
